G04 start of page 13 for group -3984 idx -3984 *
G04 Title: (unknown), fab *
G04 Creator: pcb 20140316 *
G04 CreationDate: Thu 20 Aug 2020 03:01:14 AM GMT UTC *
G04 For: railfan *
G04 Format: Gerber/RS-274X *
G04 PCB-Dimensions (mil): 3100.00 750.00 *
G04 PCB-Coordinate-Origin: lower left *
%MOIN*%
%FSLAX25Y25*%
%LNFAB*%
%ADD77C,0.0100*%
%ADD76C,0.0075*%
%ADD75C,0.0060*%
%ADD74C,0.0001*%
G54D74*G36*
X284300Y23266D02*X287266Y20300D01*
X286700Y19734D01*
X283734Y22700D01*
X284300Y23266D01*
G37*
G36*
X283734Y20300D02*X286700Y23266D01*
X287266Y22700D01*
X284300Y19734D01*
X283734Y20300D01*
G37*
G36*
X284300Y58766D02*X287266Y55800D01*
X286700Y55234D01*
X283734Y58200D01*
X284300Y58766D01*
G37*
G36*
X283734Y55800D02*X286700Y58766D01*
X287266Y58200D01*
X284300Y55234D01*
X283734Y55800D01*
G37*
G36*
X13800Y103016D02*X16766Y100050D01*
X16200Y99484D01*
X13234Y102450D01*
X13800Y103016D01*
G37*
G36*
X13234Y100050D02*X16200Y103016D01*
X16766Y102450D01*
X13800Y99484D01*
X13234Y100050D01*
G37*
G54D75*X135000Y103500D02*X136500Y100500D01*
X138000Y103500D01*
X136500Y100500D02*Y97500D01*
X139800Y100800D02*X142050D01*
X139800Y97500D02*X142800D01*
X139800Y103500D02*Y97500D01*
Y103500D02*X142800D01*
X147600D02*X148350Y102750D01*
X145350Y103500D02*X147600D01*
X144600Y102750D02*X145350Y103500D01*
X144600Y102750D02*Y101250D01*
X145350Y100500D01*
X147600D01*
X148350Y99750D01*
Y98250D01*
X147600Y97500D02*X148350Y98250D01*
X145350Y97500D02*X147600D01*
X144600Y98250D02*X145350Y97500D01*
X98000Y102750D02*X98750Y103500D01*
X101000D01*
X101750Y102750D01*
Y101250D01*
X98000Y97500D02*X101750Y101250D01*
X98000Y97500D02*X101750D01*
X45000Y98250D02*X45750Y97500D01*
X45000Y102750D02*Y98250D01*
Y102750D02*X45750Y103500D01*
X47250D01*
X48000Y102750D01*
Y98250D01*
X47250Y97500D02*X48000Y98250D01*
X45750Y97500D02*X47250D01*
X45000Y99000D02*X48000Y102000D01*
X49800Y97500D02*X50550D01*
X52350Y98250D02*X53100Y97500D01*
X52350Y102750D02*Y98250D01*
Y102750D02*X53100Y103500D01*
X54600D01*
X55350Y102750D01*
Y98250D01*
X54600Y97500D02*X55350Y98250D01*
X53100Y97500D02*X54600D01*
X52350Y99000D02*X55350Y102000D01*
X57150Y99750D02*X60150Y103500D01*
X57150Y99750D02*X60900D01*
X60150Y103500D02*Y97500D01*
X62700Y98250D02*X63450Y97500D01*
X62700Y99450D02*Y98250D01*
Y99450D02*X63750Y100500D01*
X64650D01*
X65700Y99450D01*
Y98250D01*
X64950Y97500D02*X65700Y98250D01*
X63450Y97500D02*X64950D01*
X62700Y101550D02*X63750Y100500D01*
X62700Y102750D02*Y101550D01*
Y102750D02*X63450Y103500D01*
X64950D01*
X65700Y102750D01*
Y101550D01*
X64650Y100500D02*X65700Y101550D01*
X115500Y32100D02*Y28900D01*
X113900Y30500D02*X117100D01*
X111500Y52100D02*Y48900D01*
X109900Y50500D02*X113100D01*
X119500Y52100D02*Y48900D01*
X117900Y50500D02*X121100D01*
X15000Y117850D02*Y114650D01*
X13400Y116250D02*X16600D01*
X140000Y118500D02*Y112500D01*
Y118500D02*X143750Y112500D01*
Y118500D02*Y112500D01*
X145550Y117750D02*Y113250D01*
Y117750D02*X146300Y118500D01*
X147800D01*
X148550Y117750D01*
Y113250D01*
X147800Y112500D02*X148550Y113250D01*
X146300Y112500D02*X147800D01*
X145550Y113250D02*X146300Y112500D01*
X98000Y117750D02*X98750Y118500D01*
X100250D01*
X101000Y117750D01*
X100250Y112500D02*X101000Y113250D01*
X98750Y112500D02*X100250D01*
X98000Y113250D02*X98750Y112500D01*
Y115800D02*X100250D01*
X101000Y117750D02*Y116550D01*
Y115050D02*Y113250D01*
Y115050D02*X100250Y115800D01*
X101000Y116550D02*X100250Y115800D01*
X45000Y113250D02*X45750Y112500D01*
X45000Y117750D02*Y113250D01*
Y117750D02*X45750Y118500D01*
X47250D01*
X48000Y117750D01*
Y113250D01*
X47250Y112500D02*X48000Y113250D01*
X45750Y112500D02*X47250D01*
X45000Y114000D02*X48000Y117000D01*
X49800Y112500D02*X50550D01*
X52350Y113250D02*X53100Y112500D01*
X52350Y117750D02*Y113250D01*
Y117750D02*X53100Y118500D01*
X54600D01*
X55350Y117750D01*
Y113250D01*
X54600Y112500D02*X55350Y113250D01*
X53100Y112500D02*X54600D01*
X52350Y114000D02*X55350Y117000D01*
X57150Y117750D02*X57900Y118500D01*
X59400D01*
X60150Y117750D01*
X59400Y112500D02*X60150Y113250D01*
X57900Y112500D02*X59400D01*
X57150Y113250D02*X57900Y112500D01*
Y115800D02*X59400D01*
X60150Y117750D02*Y116550D01*
Y115050D02*Y113250D01*
Y115050D02*X59400Y115800D01*
X60150Y116550D02*X59400Y115800D01*
X62700Y112500D02*X64950Y115500D01*
Y117750D02*Y115500D01*
X64200Y118500D02*X64950Y117750D01*
X62700Y118500D02*X64200D01*
X61950Y117750D02*X62700Y118500D01*
X61950Y117750D02*Y116250D01*
X62700Y115500D01*
X64950D01*
X91000Y38000D02*Y36400D01*
Y38000D02*X92387Y38800D01*
X91000Y38000D02*X89613Y38800D01*
X99000Y24500D02*Y22900D01*
Y24500D02*X100387Y25300D01*
X99000Y24500D02*X97613Y25300D01*
X99000Y21500D02*Y19900D01*
Y21500D02*X100387Y22300D01*
X99000Y21500D02*X97613Y22300D01*
X109500Y45500D02*Y43900D01*
Y45500D02*X110887Y46300D01*
X109500Y45500D02*X108113Y46300D01*
X23000Y27500D02*Y25900D01*
Y27500D02*X24387Y28300D01*
X23000Y27500D02*X21613Y28300D01*
X181500Y39250D02*Y37650D01*
Y39250D02*X182887Y40050D01*
X181500Y39250D02*X180113Y40050D01*
X186500Y39250D02*Y37650D01*
Y39250D02*X187887Y40050D01*
X186500Y39250D02*X185113Y40050D01*
X191500Y39250D02*Y37650D01*
Y39250D02*X192887Y40050D01*
X191500Y39250D02*X190113Y40050D01*
X121500Y43000D02*Y41400D01*
Y43000D02*X122887Y43800D01*
X121500Y43000D02*X120113Y43800D01*
X121500Y33000D02*Y31400D01*
Y33000D02*X122887Y33800D01*
X121500Y33000D02*X120113Y33800D01*
X144500Y32000D02*Y30400D01*
Y32000D02*X145887Y32800D01*
X144500Y32000D02*X143113Y32800D01*
X144500Y35000D02*Y33400D01*
Y35000D02*X145887Y35800D01*
X144500Y35000D02*X143113Y35800D01*
X97000Y28000D02*Y26400D01*
Y28000D02*X98387Y28800D01*
X97000Y28000D02*X95613Y28800D01*
X94500Y30000D02*Y28400D01*
Y30000D02*X95887Y30800D01*
X94500Y30000D02*X93113Y30800D01*
X273500Y46000D02*Y44400D01*
Y46000D02*X274887Y46800D01*
X273500Y46000D02*X272113Y46800D01*
X273500Y42740D02*Y41140D01*
Y42740D02*X274887Y43540D01*
X273500Y42740D02*X272113Y43540D01*
X264000Y46000D02*Y44400D01*
Y46000D02*X265387Y46800D01*
X264000Y46000D02*X262613Y46800D01*
X257500Y42740D02*Y41140D01*
Y42740D02*X258887Y43540D01*
X257500Y42740D02*X256113Y43540D01*
X247000Y39000D02*Y37400D01*
Y39000D02*X248387Y39800D01*
X247000Y39000D02*X245613Y39800D01*
X249500Y52500D02*Y50900D01*
Y52500D02*X250887Y53300D01*
X249500Y52500D02*X248113Y53300D01*
X236000Y27500D02*Y25900D01*
Y27500D02*X237387Y28300D01*
X236000Y27500D02*X234613Y28300D01*
X210000Y51000D02*Y49400D01*
Y51000D02*X211387Y51800D01*
X210000Y51000D02*X208613Y51800D01*
X15000Y131250D02*Y129650D01*
Y131250D02*X16387Y132050D01*
X15000Y131250D02*X13613Y132050D01*
X135000Y133500D02*X136500Y130500D01*
X138000Y133500D01*
X136500Y130500D02*Y127500D01*
X139800Y130800D02*X142050D01*
X139800Y127500D02*X142800D01*
X139800Y133500D02*Y127500D01*
Y133500D02*X142800D01*
X147600D02*X148350Y132750D01*
X145350Y133500D02*X147600D01*
X144600Y132750D02*X145350Y133500D01*
X144600Y132750D02*Y131250D01*
X145350Y130500D01*
X147600D01*
X148350Y129750D01*
Y128250D01*
X147600Y127500D02*X148350Y128250D01*
X145350Y127500D02*X147600D01*
X144600Y128250D02*X145350Y127500D01*
X98000Y132750D02*X98750Y133500D01*
X101000D01*
X101750Y132750D01*
Y131250D01*
X98000Y127500D02*X101750Y131250D01*
X98000Y127500D02*X101750D01*
X103550Y132750D02*X104300Y133500D01*
X106550D01*
X107300Y132750D01*
Y131250D01*
X103550Y127500D02*X107300Y131250D01*
X103550Y127500D02*X107300D01*
X45000Y128250D02*X45750Y127500D01*
X45000Y132750D02*Y128250D01*
Y132750D02*X45750Y133500D01*
X47250D01*
X48000Y132750D01*
Y128250D01*
X47250Y127500D02*X48000Y128250D01*
X45750Y127500D02*X47250D01*
X45000Y129000D02*X48000Y132000D01*
X49800Y127500D02*X50550D01*
X52350Y128250D02*X53100Y127500D01*
X52350Y132750D02*Y128250D01*
Y132750D02*X53100Y133500D01*
X54600D01*
X55350Y132750D01*
Y128250D01*
X54600Y127500D02*X55350Y128250D01*
X53100Y127500D02*X54600D01*
X52350Y129000D02*X55350Y132000D01*
X57150Y132300D02*X58350Y133500D01*
Y127500D01*
X57150D02*X59400D01*
X61200Y132750D02*X61950Y133500D01*
X64200D01*
X64950Y132750D01*
Y131250D01*
X61200Y127500D02*X64950Y131250D01*
X61200Y127500D02*X64950D01*
X3000Y148500D02*X3750Y147750D01*
X750Y148500D02*X3000D01*
X0Y147750D02*X750Y148500D01*
X0Y147750D02*Y146250D01*
X750Y145500D01*
X3000D01*
X3750Y144750D01*
Y143250D01*
X3000Y142500D02*X3750Y143250D01*
X750Y142500D02*X3000D01*
X0Y143250D02*X750Y142500D01*
X5550Y145500D02*Y143250D01*
X6300Y142500D01*
X8550Y145500D02*Y141000D01*
X7800Y140250D02*X8550Y141000D01*
X6300Y140250D02*X7800D01*
X5550Y141000D02*X6300Y140250D01*
Y142500D02*X7800D01*
X8550Y143250D01*
X11100Y144750D02*Y142500D01*
Y144750D02*X11850Y145500D01*
X12600D01*
X13350Y144750D01*
Y142500D01*
Y144750D02*X14100Y145500D01*
X14850D01*
X15600Y144750D01*
Y142500D01*
X10350Y145500D02*X11100Y144750D01*
X17400Y148500D02*Y142500D01*
Y143250D02*X18150Y142500D01*
X19650D01*
X20400Y143250D01*
Y144750D02*Y143250D01*
X19650Y145500D02*X20400Y144750D01*
X18150Y145500D02*X19650D01*
X17400Y144750D02*X18150Y145500D01*
X22200Y144750D02*Y143250D01*
Y144750D02*X22950Y145500D01*
X24450D01*
X25200Y144750D01*
Y143250D01*
X24450Y142500D02*X25200Y143250D01*
X22950Y142500D02*X24450D01*
X22200Y143250D02*X22950Y142500D01*
X27000Y148500D02*Y143250D01*
X27750Y142500D01*
X0Y139250D02*X29250D01*
X41750Y148500D02*Y142500D01*
X43700Y148500D02*X44750Y147450D01*
Y143550D01*
X43700Y142500D02*X44750Y143550D01*
X41000Y142500D02*X43700D01*
X41000Y148500D02*X43700D01*
G54D76*X46550Y147000D02*Y146850D01*
G54D75*Y144750D02*Y142500D01*
X50300Y145500D02*X51050Y144750D01*
X48800Y145500D02*X50300D01*
X48050Y144750D02*X48800Y145500D01*
X48050Y144750D02*Y143250D01*
X48800Y142500D01*
X51050Y145500D02*Y143250D01*
X51800Y142500D01*
X48800D02*X50300D01*
X51050Y143250D01*
X54350Y144750D02*Y142500D01*
Y144750D02*X55100Y145500D01*
X55850D01*
X56600Y144750D01*
Y142500D01*
Y144750D02*X57350Y145500D01*
X58100D01*
X58850Y144750D01*
Y142500D01*
X53600Y145500D02*X54350Y144750D01*
X60650Y142500D02*X61400D01*
X65900Y143250D02*X66650Y142500D01*
X65900Y147750D02*X66650Y148500D01*
X65900Y147750D02*Y143250D01*
X68450Y148500D02*X69950D01*
X69200D02*Y142500D01*
X68450D02*X69950D01*
X72500Y144750D02*Y142500D01*
Y144750D02*X73250Y145500D01*
X74000D01*
X74750Y144750D01*
Y142500D01*
X71750Y145500D02*X72500Y144750D01*
X77300Y145500D02*X79550D01*
X76550Y144750D02*X77300Y145500D01*
X76550Y144750D02*Y143250D01*
X77300Y142500D01*
X79550D01*
X81350Y148500D02*Y142500D01*
Y144750D02*X82100Y145500D01*
X83600D01*
X84350Y144750D01*
Y142500D01*
X86150Y148500D02*X86900Y147750D01*
Y143250D01*
X86150Y142500D02*X86900Y143250D01*
X41000Y139250D02*X88700D01*
X96050Y142500D02*X98000D01*
X95000Y143550D02*X96050Y142500D01*
X95000Y147450D02*Y143550D01*
Y147450D02*X96050Y148500D01*
X98000D01*
X99800Y144750D02*Y143250D01*
Y144750D02*X100550Y145500D01*
X102050D01*
X102800Y144750D01*
Y143250D01*
X102050Y142500D02*X102800Y143250D01*
X100550Y142500D02*X102050D01*
X99800Y143250D02*X100550Y142500D01*
X104600Y145500D02*Y143250D01*
X105350Y142500D01*
X106850D01*
X107600Y143250D01*
Y145500D02*Y143250D01*
X110150Y144750D02*Y142500D01*
Y144750D02*X110900Y145500D01*
X111650D01*
X112400Y144750D01*
Y142500D01*
X109400Y145500D02*X110150Y144750D01*
X114950Y148500D02*Y143250D01*
X115700Y142500D01*
X114200Y146250D02*X115700D01*
X95000Y139250D02*X117200D01*
X130750Y148500D02*Y142500D01*
X130000Y148500D02*X133000D01*
X133750Y147750D01*
Y146250D01*
X133000Y145500D02*X133750Y146250D01*
X130750Y145500D02*X133000D01*
X135550Y148500D02*Y143250D01*
X136300Y142500D01*
X140050Y145500D02*X140800Y144750D01*
X138550Y145500D02*X140050D01*
X137800Y144750D02*X138550Y145500D01*
X137800Y144750D02*Y143250D01*
X138550Y142500D01*
X140800Y145500D02*Y143250D01*
X141550Y142500D01*
X138550D02*X140050D01*
X140800Y143250D01*
X144100Y148500D02*Y143250D01*
X144850Y142500D01*
X143350Y146250D02*X144850D01*
X147100Y142500D02*X149350D01*
X146350Y143250D02*X147100Y142500D01*
X146350Y144750D02*Y143250D01*
Y144750D02*X147100Y145500D01*
X148600D01*
X149350Y144750D01*
X146350Y144000D02*X149350D01*
Y144750D02*Y144000D01*
X154150Y148500D02*Y142500D01*
X153400D02*X154150Y143250D01*
X151900Y142500D02*X153400D01*
X151150Y143250D02*X151900Y142500D01*
X151150Y144750D02*Y143250D01*
Y144750D02*X151900Y145500D01*
X153400D01*
X154150Y144750D01*
X157450Y145500D02*Y144750D01*
Y143250D02*Y142500D01*
X155950Y147750D02*Y147000D01*
Y147750D02*X156700Y148500D01*
X158200D01*
X158950Y147750D01*
Y147000D01*
X157450Y145500D02*X158950Y147000D01*
X130000Y139250D02*X160750D01*
X0Y163500D02*X3000D01*
X1500D02*Y157500D01*
X4800Y163500D02*Y157500D01*
Y159750D02*X5550Y160500D01*
X7050D01*
X7800Y159750D01*
Y157500D01*
X10350D02*X12600D01*
X9600Y158250D02*X10350Y157500D01*
X9600Y159750D02*Y158250D01*
Y159750D02*X10350Y160500D01*
X11850D01*
X12600Y159750D01*
X9600Y159000D02*X12600D01*
Y159750D02*Y159000D01*
X15150Y159750D02*Y157500D01*
Y159750D02*X15900Y160500D01*
X17400D01*
X14400D02*X15150Y159750D01*
X19950Y157500D02*X22200D01*
X19200Y158250D02*X19950Y157500D01*
X19200Y159750D02*Y158250D01*
Y159750D02*X19950Y160500D01*
X21450D01*
X22200Y159750D01*
X19200Y159000D02*X22200D01*
Y159750D02*Y159000D01*
X28950Y160500D02*X29700Y159750D01*
X27450Y160500D02*X28950D01*
X26700Y159750D02*X27450Y160500D01*
X26700Y159750D02*Y158250D01*
X27450Y157500D01*
X29700Y160500D02*Y158250D01*
X30450Y157500D01*
X27450D02*X28950D01*
X29700Y158250D01*
X33000Y159750D02*Y157500D01*
Y159750D02*X33750Y160500D01*
X35250D01*
X32250D02*X33000Y159750D01*
X37800Y157500D02*X40050D01*
X37050Y158250D02*X37800Y157500D01*
X37050Y159750D02*Y158250D01*
Y159750D02*X37800Y160500D01*
X39300D01*
X40050Y159750D01*
X37050Y159000D02*X40050D01*
Y159750D02*Y159000D01*
X44550Y162750D02*X45300Y163500D01*
X46800D01*
X47550Y162750D01*
X46800Y157500D02*X47550Y158250D01*
X45300Y157500D02*X46800D01*
X44550Y158250D02*X45300Y157500D01*
Y160800D02*X46800D01*
X47550Y162750D02*Y161550D01*
Y160050D02*Y158250D01*
Y160050D02*X46800Y160800D01*
X47550Y161550D02*X46800Y160800D01*
X55050Y163500D02*Y157500D01*
X54300D02*X55050Y158250D01*
X52800Y157500D02*X54300D01*
X52050Y158250D02*X52800Y157500D01*
X52050Y159750D02*Y158250D01*
Y159750D02*X52800Y160500D01*
X54300D01*
X55050Y159750D01*
G54D76*X56850Y162000D02*Y161850D01*
G54D75*Y159750D02*Y157500D01*
X59100Y162750D02*Y157500D01*
Y162750D02*X59850Y163500D01*
X60600D01*
X58350Y160500D02*X59850D01*
X62850Y162750D02*Y157500D01*
Y162750D02*X63600Y163500D01*
X64350D01*
X62100Y160500D02*X63600D01*
X66600Y157500D02*X68850D01*
X65850Y158250D02*X66600Y157500D01*
X65850Y159750D02*Y158250D01*
Y159750D02*X66600Y160500D01*
X68100D01*
X68850Y159750D01*
X65850Y159000D02*X68850D01*
Y159750D02*Y159000D01*
X71400Y159750D02*Y157500D01*
Y159750D02*X72150Y160500D01*
X73650D01*
X70650D02*X71400Y159750D01*
X76200Y157500D02*X78450D01*
X75450Y158250D02*X76200Y157500D01*
X75450Y159750D02*Y158250D01*
Y159750D02*X76200Y160500D01*
X77700D01*
X78450Y159750D01*
X75450Y159000D02*X78450D01*
Y159750D02*Y159000D01*
X81000Y159750D02*Y157500D01*
Y159750D02*X81750Y160500D01*
X82500D01*
X83250Y159750D01*
Y157500D01*
X80250Y160500D02*X81000Y159750D01*
X85800Y163500D02*Y158250D01*
X86550Y157500D01*
X85050Y161250D02*X86550D01*
X93750Y163500D02*Y157500D01*
X93000D02*X93750Y158250D01*
X91500Y157500D02*X93000D01*
X90750Y158250D02*X91500Y157500D01*
X90750Y159750D02*Y158250D01*
Y159750D02*X91500Y160500D01*
X93000D01*
X93750Y159750D01*
X96300D02*Y157500D01*
Y159750D02*X97050Y160500D01*
X98550D01*
X95550D02*X96300Y159750D01*
G54D76*X100350Y162000D02*Y161850D01*
G54D75*Y159750D02*Y157500D01*
X101850Y163500D02*Y158250D01*
X102600Y157500D01*
X104100Y163500D02*Y158250D01*
X104850Y157500D01*
X109800D02*X112050D01*
X112800Y158250D01*
X112050Y159000D02*X112800Y158250D01*
X109800Y159000D02*X112050D01*
X109050Y159750D02*X109800Y159000D01*
X109050Y159750D02*X109800Y160500D01*
X112050D01*
X112800Y159750D01*
X109050Y158250D02*X109800Y157500D01*
G54D76*X114600Y162000D02*Y161850D01*
G54D75*Y159750D02*Y157500D01*
X116100Y160500D02*X119100D01*
X116100Y157500D02*X119100Y160500D01*
X116100Y157500D02*X119100D01*
X121650D02*X123900D01*
X120900Y158250D02*X121650Y157500D01*
X120900Y159750D02*Y158250D01*
Y159750D02*X121650Y160500D01*
X123150D01*
X123900Y159750D01*
X120900Y159000D02*X123900D01*
Y159750D02*Y159000D01*
X126450Y157500D02*X128700D01*
X129450Y158250D01*
X128700Y159000D02*X129450Y158250D01*
X126450Y159000D02*X128700D01*
X125700Y159750D02*X126450Y159000D01*
X125700Y159750D02*X126450Y160500D01*
X128700D01*
X129450Y159750D01*
X125700Y158250D02*X126450Y157500D01*
X133950Y160500D02*Y158250D01*
X134700Y157500D01*
X136200D01*
X136950Y158250D01*
Y160500D02*Y158250D01*
X139500Y157500D02*X141750D01*
X142500Y158250D01*
X141750Y159000D02*X142500Y158250D01*
X139500Y159000D02*X141750D01*
X138750Y159750D02*X139500Y159000D01*
X138750Y159750D02*X139500Y160500D01*
X141750D01*
X142500Y159750D01*
X138750Y158250D02*X139500Y157500D01*
X145050D02*X147300D01*
X144300Y158250D02*X145050Y157500D01*
X144300Y159750D02*Y158250D01*
Y159750D02*X145050Y160500D01*
X146550D01*
X147300Y159750D01*
X144300Y159000D02*X147300D01*
Y159750D02*Y159000D01*
X152100Y163500D02*Y157500D01*
X151350D02*X152100Y158250D01*
X149850Y157500D02*X151350D01*
X149100Y158250D02*X149850Y157500D01*
X149100Y159750D02*Y158250D01*
Y159750D02*X149850Y160500D01*
X151350D01*
X152100Y159750D01*
G54D76*X156600Y162000D02*Y161850D01*
G54D75*Y159750D02*Y157500D01*
X158850Y159750D02*Y157500D01*
Y159750D02*X159600Y160500D01*
X160350D01*
X161100Y159750D01*
Y157500D01*
X158100Y160500D02*X158850Y159750D01*
X166350Y163500D02*Y158250D01*
X167100Y157500D01*
X165600Y161250D02*X167100D01*
X168600Y163500D02*Y157500D01*
Y159750D02*X169350Y160500D01*
X170850D01*
X171600Y159750D01*
Y157500D01*
G54D76*X173400Y162000D02*Y161850D01*
G54D75*Y159750D02*Y157500D01*
X175650D02*X177900D01*
X178650Y158250D01*
X177900Y159000D02*X178650Y158250D01*
X175650Y159000D02*X177900D01*
X174900Y159750D02*X175650Y159000D01*
X174900Y159750D02*X175650Y160500D01*
X177900D01*
X178650Y159750D01*
X174900Y158250D02*X175650Y157500D01*
X183150Y163500D02*Y158250D01*
X183900Y157500D01*
X187650Y160500D02*X188400Y159750D01*
X186150Y160500D02*X187650D01*
X185400Y159750D02*X186150Y160500D01*
X185400Y159750D02*Y158250D01*
X186150Y157500D01*
X188400Y160500D02*Y158250D01*
X189150Y157500D01*
X186150D02*X187650D01*
X188400Y158250D01*
X190950Y160500D02*Y158250D01*
X191700Y157500D01*
X193950Y160500D02*Y156000D01*
X193200Y155250D02*X193950Y156000D01*
X191700Y155250D02*X193200D01*
X190950Y156000D02*X191700Y155250D01*
Y157500D02*X193200D01*
X193950Y158250D01*
X195750Y159750D02*Y158250D01*
Y159750D02*X196500Y160500D01*
X198000D01*
X198750Y159750D01*
Y158250D01*
X198000Y157500D02*X198750Y158250D01*
X196500Y157500D02*X198000D01*
X195750Y158250D02*X196500Y157500D01*
X200550Y160500D02*Y158250D01*
X201300Y157500D01*
X202800D01*
X203550Y158250D01*
Y160500D02*Y158250D01*
X206100Y163500D02*Y158250D01*
X206850Y157500D01*
X205350Y161250D02*X206850D01*
X208350Y156000D02*X209850Y157500D01*
X214350Y162750D02*X215100Y163500D01*
X217350D01*
X218100Y162750D01*
Y161250D01*
X214350Y157500D02*X218100Y161250D01*
X214350Y157500D02*X218100D01*
X220650D02*X223650Y163500D01*
X219900D02*X223650D01*
X228150D02*Y157500D01*
Y159750D02*X228900Y160500D01*
X230400D01*
X231150Y159750D01*
Y157500D01*
X232950Y159750D02*Y158250D01*
Y159750D02*X233700Y160500D01*
X235200D01*
X235950Y159750D01*
Y158250D01*
X235200Y157500D02*X235950Y158250D01*
X233700Y157500D02*X235200D01*
X232950Y158250D02*X233700Y157500D01*
X237750Y163500D02*Y158250D01*
X238500Y157500D01*
X240750D02*X243000D01*
X240000Y158250D02*X240750Y157500D01*
X240000Y159750D02*Y158250D01*
Y159750D02*X240750Y160500D01*
X242250D01*
X243000Y159750D01*
X240000Y159000D02*X243000D01*
Y159750D02*Y159000D01*
X245550Y157500D02*X247800D01*
X248550Y158250D01*
X247800Y159000D02*X248550Y158250D01*
X245550Y159000D02*X247800D01*
X244800Y159750D02*X245550Y159000D01*
X244800Y159750D02*X245550Y160500D01*
X247800D01*
X248550Y159750D01*
X244800Y158250D02*X245550Y157500D01*
X253800Y163500D02*Y158250D01*
X254550Y157500D01*
X253050Y161250D02*X254550D01*
X256050Y159750D02*Y158250D01*
Y159750D02*X256800Y160500D01*
X258300D01*
X259050Y159750D01*
Y158250D01*
X258300Y157500D02*X259050Y158250D01*
X256800Y157500D02*X258300D01*
X256050Y158250D02*X256800Y157500D01*
X261600Y163500D02*Y158250D01*
X262350Y157500D01*
X260850Y161250D02*X262350D01*
X266100Y160500D02*X266850Y159750D01*
X264600Y160500D02*X266100D01*
X263850Y159750D02*X264600Y160500D01*
X263850Y159750D02*Y158250D01*
X264600Y157500D01*
X266850Y160500D02*Y158250D01*
X267600Y157500D01*
X264600D02*X266100D01*
X266850Y158250D01*
X269400Y163500D02*Y158250D01*
X270150Y157500D01*
G54D77*X10000Y64500D02*Y14000D01*
X10500Y13500D02*X298500D01*
X299000Y14000D02*Y64500D01*
X298500Y65000D02*X10500D01*
X10000Y64500D02*G75*G02X10500Y65000I500J0D01*G01*
X298500D02*G75*G02X299000Y64500I0J-500D01*G01*
X298500Y13500D02*G75*G03X299000Y14000I0J500D01*G01*
X10500Y13500D02*G75*G02X10000Y14000I0J500D01*G01*
G54D75*X68675Y-9500D02*X71675D01*
X72425Y-8750D01*
Y-6950D02*Y-8750D01*
X71675Y-6200D02*X72425Y-6950D01*
X69425Y-6200D02*X71675D01*
X69425Y-3500D02*Y-9500D01*
X68675Y-3500D02*X71675D01*
X72425Y-4250D01*
Y-5450D01*
X71675Y-6200D02*X72425Y-5450D01*
X74225Y-7250D02*Y-8750D01*
Y-7250D02*X74975Y-6500D01*
X76475D01*
X77225Y-7250D01*
Y-8750D01*
X76475Y-9500D02*X77225Y-8750D01*
X74975Y-9500D02*X76475D01*
X74225Y-8750D02*X74975Y-9500D01*
X81275Y-6500D02*X82025Y-7250D01*
X79775Y-6500D02*X81275D01*
X79025Y-7250D02*X79775Y-6500D01*
X79025Y-7250D02*Y-8750D01*
X79775Y-9500D01*
X82025Y-6500D02*Y-8750D01*
X82775Y-9500D01*
X79775D02*X81275D01*
X82025Y-8750D01*
X85325Y-7250D02*Y-9500D01*
Y-7250D02*X86075Y-6500D01*
X87575D01*
X84575D02*X85325Y-7250D01*
X92375Y-3500D02*Y-9500D01*
X91625D02*X92375Y-8750D01*
X90125Y-9500D02*X91625D01*
X89375Y-8750D02*X90125Y-9500D01*
X89375Y-7250D02*Y-8750D01*
Y-7250D02*X90125Y-6500D01*
X91625D01*
X92375Y-7250D01*
X96875D02*Y-8750D01*
Y-7250D02*X97625Y-6500D01*
X99125D01*
X99875Y-7250D01*
Y-8750D01*
X99125Y-9500D02*X99875Y-8750D01*
X97625Y-9500D02*X99125D01*
X96875Y-8750D02*X97625Y-9500D01*
X101675Y-6500D02*Y-8750D01*
X102425Y-9500D01*
X103925D01*
X104675Y-8750D01*
Y-6500D02*Y-8750D01*
X107225Y-3500D02*Y-8750D01*
X107975Y-9500D01*
X106475Y-5750D02*X107975D01*
X109475Y-3500D02*Y-8750D01*
X110225Y-9500D01*
G54D76*X111725Y-5000D02*Y-5150D01*
G54D75*Y-7250D02*Y-9500D01*
X113975Y-7250D02*Y-9500D01*
Y-7250D02*X114725Y-6500D01*
X115475D01*
X116225Y-7250D01*
Y-9500D01*
X113225Y-6500D02*X113975Y-7250D01*
X118775Y-9500D02*X121025D01*
X118025Y-8750D02*X118775Y-9500D01*
X118025Y-7250D02*Y-8750D01*
Y-7250D02*X118775Y-6500D01*
X120275D01*
X121025Y-7250D01*
X118025Y-8000D02*X121025D01*
Y-7250D02*Y-8000D01*
G54D76*X125525Y-5000D02*Y-5150D01*
G54D75*Y-7250D02*Y-9500D01*
X127775D02*X130025D01*
X130775Y-8750D01*
X130025Y-8000D02*X130775Y-8750D01*
X127775Y-8000D02*X130025D01*
X127025Y-7250D02*X127775Y-8000D01*
X127025Y-7250D02*X127775Y-6500D01*
X130025D01*
X130775Y-7250D01*
X127025Y-8750D02*X127775Y-9500D01*
X136025Y-3500D02*Y-8750D01*
X136775Y-9500D01*
X135275Y-5750D02*X136775D01*
X138275Y-3500D02*Y-9500D01*
Y-7250D02*X139025Y-6500D01*
X140525D01*
X141275Y-7250D01*
Y-9500D01*
X143825D02*X146075D01*
X143075Y-8750D02*X143825Y-9500D01*
X143075Y-7250D02*Y-8750D01*
Y-7250D02*X143825Y-6500D01*
X145325D01*
X146075Y-7250D01*
X143075Y-8000D02*X146075D01*
Y-7250D02*Y-8000D01*
X151325Y-6500D02*X153575D01*
X150575Y-7250D02*X151325Y-6500D01*
X150575Y-7250D02*Y-8750D01*
X151325Y-9500D01*
X153575D01*
X156125D02*X158375D01*
X155375Y-8750D02*X156125Y-9500D01*
X155375Y-7250D02*Y-8750D01*
Y-7250D02*X156125Y-6500D01*
X157625D01*
X158375Y-7250D01*
X155375Y-8000D02*X158375D01*
Y-7250D02*Y-8000D01*
X160925Y-7250D02*Y-9500D01*
Y-7250D02*X161675Y-6500D01*
X162425D01*
X163175Y-7250D01*
Y-9500D01*
X160175Y-6500D02*X160925Y-7250D01*
X165725Y-3500D02*Y-8750D01*
X166475Y-9500D01*
X164975Y-5750D02*X166475D01*
X168725Y-9500D02*X170975D01*
X167975Y-8750D02*X168725Y-9500D01*
X167975Y-7250D02*Y-8750D01*
Y-7250D02*X168725Y-6500D01*
X170225D01*
X170975Y-7250D01*
X167975Y-8000D02*X170975D01*
Y-7250D02*Y-8000D01*
X173525Y-7250D02*Y-9500D01*
Y-7250D02*X174275Y-6500D01*
X175775D01*
X172775D02*X173525Y-7250D01*
X177575Y-3500D02*Y-8750D01*
X178325Y-9500D01*
G54D76*X179825Y-5000D02*Y-5150D01*
G54D75*Y-7250D02*Y-9500D01*
X182075Y-7250D02*Y-9500D01*
Y-7250D02*X182825Y-6500D01*
X183575D01*
X184325Y-7250D01*
Y-9500D01*
X181325Y-6500D02*X182075Y-7250D01*
X186875Y-9500D02*X189125D01*
X186125Y-8750D02*X186875Y-9500D01*
X186125Y-7250D02*Y-8750D01*
Y-7250D02*X186875Y-6500D01*
X188375D01*
X189125Y-7250D01*
X186125Y-8000D02*X189125D01*
Y-7250D02*Y-8000D01*
X193625Y-7250D02*Y-8750D01*
Y-7250D02*X194375Y-6500D01*
X195875D01*
X196625Y-7250D01*
Y-8750D01*
X195875Y-9500D02*X196625Y-8750D01*
X194375Y-9500D02*X195875D01*
X193625Y-8750D02*X194375Y-9500D01*
X199175Y-4250D02*Y-9500D01*
Y-4250D02*X199925Y-3500D01*
X200675D01*
X198425Y-6500D02*X199925D01*
X205625Y-3500D02*Y-8750D01*
X206375Y-9500D01*
X204875Y-5750D02*X206375D01*
X207875Y-3500D02*Y-9500D01*
Y-7250D02*X208625Y-6500D01*
X210125D01*
X210875Y-7250D01*
Y-9500D01*
G54D76*X212675Y-5000D02*Y-5150D01*
G54D75*Y-7250D02*Y-9500D01*
X214925D02*X217175D01*
X217925Y-8750D01*
X217175Y-8000D02*X217925Y-8750D01*
X214925Y-8000D02*X217175D01*
X214175Y-7250D02*X214925Y-8000D01*
X214175Y-7250D02*X214925Y-6500D01*
X217175D01*
X217925Y-7250D01*
X214175Y-8750D02*X214925Y-9500D01*
X223175Y-7250D02*Y-11750D01*
X222425Y-6500D02*X223175Y-7250D01*
X223925Y-6500D01*
X225425D01*
X226175Y-7250D01*
Y-8750D01*
X225425Y-9500D02*X226175Y-8750D01*
X223925Y-9500D02*X225425D01*
X223175Y-8750D02*X223925Y-9500D01*
X230225Y-6500D02*X230975Y-7250D01*
X228725Y-6500D02*X230225D01*
X227975Y-7250D02*X228725Y-6500D01*
X227975Y-7250D02*Y-8750D01*
X228725Y-9500D01*
X230975Y-6500D02*Y-8750D01*
X231725Y-9500D01*
X228725D02*X230225D01*
X230975Y-8750D01*
X234275Y-3500D02*Y-8750D01*
X235025Y-9500D01*
X233525Y-5750D02*X235025D01*
X236525Y-3500D02*Y-9500D01*
Y-7250D02*X237275Y-6500D01*
X238775D01*
X239525Y-7250D01*
Y-9500D01*
X200750Y103500D02*Y97500D01*
X202700Y103500D02*X203750Y102450D01*
Y98550D01*
X202700Y97500D02*X203750Y98550D01*
X200000Y97500D02*X202700D01*
X200000Y103500D02*X202700D01*
X207800Y100500D02*X208550Y99750D01*
X206300Y100500D02*X207800D01*
X205550Y99750D02*X206300Y100500D01*
X205550Y99750D02*Y98250D01*
X206300Y97500D01*
X208550Y100500D02*Y98250D01*
X209300Y97500D01*
X206300D02*X207800D01*
X208550Y98250D01*
X211850Y103500D02*Y98250D01*
X212600Y97500D01*
X211100Y101250D02*X212600D01*
X214850Y97500D02*X217100D01*
X214100Y98250D02*X214850Y97500D01*
X214100Y99750D02*Y98250D01*
Y99750D02*X214850Y100500D01*
X216350D01*
X217100Y99750D01*
X214100Y99000D02*X217100D01*
Y99750D02*Y99000D01*
X218900Y101250D02*X219650D01*
X218900Y99750D02*X219650D01*
X224150Y103500D02*X227150D01*
X225650D02*Y97500D01*
X228950Y103500D02*Y97500D01*
Y99750D02*X229700Y100500D01*
X231200D01*
X231950Y99750D01*
Y97500D01*
X233750Y100500D02*Y98250D01*
X234500Y97500D01*
X236000D01*
X236750Y98250D01*
Y100500D02*Y98250D01*
X241250Y102750D02*X242000Y103500D01*
X244250D01*
X245000Y102750D01*
Y101250D01*
X241250Y97500D02*X245000Y101250D01*
X241250Y97500D02*X245000D01*
X246800Y98250D02*X247550Y97500D01*
X246800Y102750D02*Y98250D01*
Y102750D02*X247550Y103500D01*
X249050D01*
X249800Y102750D01*
Y98250D01*
X249050Y97500D02*X249800Y98250D01*
X247550Y97500D02*X249050D01*
X246800Y99000D02*X249800Y102000D01*
X254300D02*Y97500D01*
Y102000D02*X255350Y103500D01*
X257000D01*
X258050Y102000D01*
Y97500D01*
X254300Y100500D02*X258050D01*
X259850D02*Y98250D01*
X260600Y97500D01*
X262100D01*
X262850Y98250D01*
Y100500D02*Y98250D01*
X266900Y100500D02*X267650Y99750D01*
X265400Y100500D02*X266900D01*
X264650Y99750D02*X265400Y100500D01*
X264650Y99750D02*Y98250D01*
X265400Y97500D01*
X266900D01*
X267650Y98250D01*
X264650Y96000D02*X265400Y95250D01*
X266900D01*
X267650Y96000D01*
Y100500D02*Y96000D01*
X272150Y102750D02*X272900Y103500D01*
X275150D01*
X275900Y102750D01*
Y101250D01*
X272150Y97500D02*X275900Y101250D01*
X272150Y97500D02*X275900D01*
X277700Y98250D02*X278450Y97500D01*
X277700Y102750D02*Y98250D01*
Y102750D02*X278450Y103500D01*
X279950D01*
X280700Y102750D01*
Y98250D01*
X279950Y97500D02*X280700Y98250D01*
X278450Y97500D02*X279950D01*
X277700Y99000D02*X280700Y102000D01*
X282500Y102750D02*X283250Y103500D01*
X285500D01*
X286250Y102750D01*
Y101250D01*
X282500Y97500D02*X286250Y101250D01*
X282500Y97500D02*X286250D01*
X288050Y98250D02*X288800Y97500D01*
X288050Y102750D02*Y98250D01*
Y102750D02*X288800Y103500D01*
X290300D01*
X291050Y102750D01*
Y98250D01*
X290300Y97500D02*X291050Y98250D01*
X288800Y97500D02*X290300D01*
X288050Y99000D02*X291050Y102000D01*
X295550Y98250D02*X296300Y97500D01*
X295550Y102750D02*Y98250D01*
Y102750D02*X296300Y103500D01*
X297800D01*
X298550Y102750D01*
Y98250D01*
X297800Y97500D02*X298550Y98250D01*
X296300Y97500D02*X297800D01*
X295550Y99000D02*X298550Y102000D01*
X300350Y102750D02*X301100Y103500D01*
X302600D01*
X303350Y102750D01*
X302600Y97500D02*X303350Y98250D01*
X301100Y97500D02*X302600D01*
X300350Y98250D02*X301100Y97500D01*
Y100800D02*X302600D01*
X303350Y102750D02*Y101550D01*
Y100050D02*Y98250D01*
Y100050D02*X302600Y100800D01*
X303350Y101550D02*X302600Y100800D01*
X305150Y101250D02*X305900D01*
X305150Y99750D02*X305900D01*
X307700Y98250D02*X308450Y97500D01*
X307700Y102750D02*Y98250D01*
Y102750D02*X308450Y103500D01*
X309950D01*
X310700Y102750D01*
Y98250D01*
X309950Y97500D02*X310700Y98250D01*
X308450Y97500D02*X309950D01*
X307700Y99000D02*X310700Y102000D01*
X312500Y102300D02*X313700Y103500D01*
Y97500D01*
X312500D02*X314750D01*
X316550Y101250D02*X317300D01*
X316550Y99750D02*X317300D01*
X319100Y102300D02*X320300Y103500D01*
Y97500D01*
X319100D02*X321350D01*
X323150Y99750D02*X326150Y103500D01*
X323150Y99750D02*X326900D01*
X326150Y103500D02*Y97500D01*
X331400Y102000D02*Y97500D01*
Y102000D02*X332450Y103500D01*
X334100D01*
X335150Y102000D01*
Y97500D01*
X331400Y100500D02*X335150D01*
X336950Y103500D02*Y97500D01*
Y103500D02*X339200Y100500D01*
X341450Y103500D01*
Y97500D01*
X348950Y103500D02*X349700Y102750D01*
X346700Y103500D02*X348950D01*
X345950Y102750D02*X346700Y103500D01*
X345950Y102750D02*Y98250D01*
X346700Y97500D01*
X348950D01*
X349700Y98250D01*
Y99750D02*Y98250D01*
X348950Y100500D02*X349700Y99750D01*
X347450Y100500D02*X348950D01*
X351500Y103500D02*Y97500D01*
Y103500D02*X353750Y100500D01*
X356000Y103500D01*
Y97500D01*
X357800Y103500D02*X360800D01*
X359300D02*Y97500D01*
X365300Y103500D02*Y98250D01*
X366050Y97500D01*
X367550D01*
X368300Y98250D01*
Y103500D02*Y98250D01*
X370100Y103500D02*X373100D01*
X371600D02*Y97500D01*
X375950D02*X377900D01*
X374900Y98550D02*X375950Y97500D01*
X374900Y102450D02*Y98550D01*
Y102450D02*X375950Y103500D01*
X377900D01*
X200000Y117000D02*Y112500D01*
Y117000D02*X201050Y118500D01*
X202700D01*
X203750Y117000D01*
Y112500D01*
X200000Y115500D02*X203750D01*
X205550D02*Y113250D01*
X206300Y112500D01*
X207800D01*
X208550Y113250D01*
Y115500D02*Y113250D01*
X211100Y118500D02*Y113250D01*
X211850Y112500D01*
X210350Y116250D02*X211850D01*
X213350Y118500D02*Y112500D01*
Y114750D02*X214100Y115500D01*
X215600D01*
X216350Y114750D01*
Y112500D01*
X218150Y114750D02*Y113250D01*
Y114750D02*X218900Y115500D01*
X220400D01*
X221150Y114750D01*
Y113250D01*
X220400Y112500D02*X221150Y113250D01*
X218900Y112500D02*X220400D01*
X218150Y113250D02*X218900Y112500D01*
X223700Y114750D02*Y112500D01*
Y114750D02*X224450Y115500D01*
X225950D01*
X222950D02*X223700Y114750D01*
X227750Y116250D02*X228500D01*
X227750Y114750D02*X228500D01*
X233000Y118500D02*Y112500D01*
Y118500D02*X235250Y115500D01*
X237500Y118500D01*
Y112500D01*
G54D76*X239300Y117000D02*Y116850D01*
G54D75*Y114750D02*Y112500D01*
X241550Y115500D02*X243800D01*
X240800Y114750D02*X241550Y115500D01*
X240800Y114750D02*Y113250D01*
X241550Y112500D01*
X243800D01*
X245600Y118500D02*Y112500D01*
Y114750D02*X246350Y115500D01*
X247850D01*
X248600Y114750D01*
Y112500D01*
X252650Y115500D02*X253400Y114750D01*
X251150Y115500D02*X252650D01*
X250400Y114750D02*X251150Y115500D01*
X250400Y114750D02*Y113250D01*
X251150Y112500D01*
X253400Y115500D02*Y113250D01*
X254150Y112500D01*
X251150D02*X252650D01*
X253400Y113250D01*
X256700Y112500D02*X258950D01*
X255950Y113250D02*X256700Y112500D01*
X255950Y114750D02*Y113250D01*
Y114750D02*X256700Y115500D01*
X258200D01*
X258950Y114750D01*
X255950Y114000D02*X258950D01*
Y114750D02*Y114000D01*
X260750Y118500D02*Y113250D01*
X261500Y112500D01*
X266450Y118500D02*Y112500D01*
X265700Y118500D02*X268700D01*
X269450Y117750D01*
Y116250D01*
X268700Y115500D02*X269450Y116250D01*
X266450Y115500D02*X268700D01*
X272000Y112500D02*X274250D01*
X271250Y113250D02*X272000Y112500D01*
X271250Y114750D02*Y113250D01*
Y114750D02*X272000Y115500D01*
X273500D01*
X274250Y114750D01*
X271250Y114000D02*X274250D01*
Y114750D02*Y114000D01*
X276800Y118500D02*Y113250D01*
X277550Y112500D01*
X276050Y116250D02*X277550D01*
X279800Y112500D02*X282050D01*
X279050Y113250D02*X279800Y112500D01*
X279050Y114750D02*Y113250D01*
Y114750D02*X279800Y115500D01*
X281300D01*
X282050Y114750D01*
X279050Y114000D02*X282050D01*
Y114750D02*Y114000D01*
X284600Y114750D02*Y112500D01*
Y114750D02*X285350Y115500D01*
X286850D01*
X283850D02*X284600Y114750D01*
X289400Y112500D02*X291650D01*
X292400Y113250D01*
X291650Y114000D02*X292400Y113250D01*
X289400Y114000D02*X291650D01*
X288650Y114750D02*X289400Y114000D01*
X288650Y114750D02*X289400Y115500D01*
X291650D01*
X292400Y114750D01*
X288650Y113250D02*X289400Y112500D01*
X294950D02*X297200D01*
X294200Y113250D02*X294950Y112500D01*
X294200Y114750D02*Y113250D01*
Y114750D02*X294950Y115500D01*
X296450D01*
X297200Y114750D01*
X294200Y114000D02*X297200D01*
Y114750D02*Y114000D01*
X299750Y114750D02*Y112500D01*
Y114750D02*X300500Y115500D01*
X301250D01*
X302000Y114750D01*
Y112500D01*
X299000Y115500D02*X299750Y114750D01*
X200000Y133500D02*X203000D01*
X201500D02*Y127500D01*
G54D76*X204800Y132000D02*Y131850D01*
G54D75*Y129750D02*Y127500D01*
X207050Y133500D02*Y128250D01*
X207800Y127500D01*
X206300Y131250D02*X207800D01*
X209300Y133500D02*Y128250D01*
X210050Y127500D01*
X212300D02*X214550D01*
X211550Y128250D02*X212300Y127500D01*
X211550Y129750D02*Y128250D01*
Y129750D02*X212300Y130500D01*
X213800D01*
X214550Y129750D01*
X211550Y129000D02*X214550D01*
Y129750D02*Y129000D01*
X216350Y131250D02*X217100D01*
X216350Y129750D02*X217100D01*
X221600Y128250D02*X222350Y127500D01*
X221600Y132750D02*X222350Y133500D01*
X221600Y132750D02*Y128250D01*
X224150Y130500D02*Y128250D01*
X224900Y127500D01*
X226400D01*
X227150Y128250D01*
Y130500D02*Y128250D01*
X229700Y129750D02*Y127500D01*
Y129750D02*X230450Y130500D01*
X231200D01*
X231950Y129750D01*
Y127500D01*
X228950Y130500D02*X229700Y129750D01*
X233750Y133500D02*Y127500D01*
Y129750D02*X236000Y127500D01*
X233750Y129750D02*X235250Y131250D01*
X238550Y129750D02*Y127500D01*
Y129750D02*X239300Y130500D01*
X240050D01*
X240800Y129750D01*
Y127500D01*
X237800Y130500D02*X238550Y129750D01*
X242600D02*Y128250D01*
Y129750D02*X243350Y130500D01*
X244850D01*
X245600Y129750D01*
Y128250D01*
X244850Y127500D02*X245600Y128250D01*
X243350Y127500D02*X244850D01*
X242600Y128250D02*X243350Y127500D01*
X247400Y130500D02*Y128250D01*
X248150Y127500D01*
X248900D01*
X249650Y128250D01*
Y130500D02*Y128250D01*
X250400Y127500D01*
X251150D01*
X251900Y128250D01*
Y130500D02*Y128250D01*
X254450Y129750D02*Y127500D01*
Y129750D02*X255200Y130500D01*
X255950D01*
X256700Y129750D01*
Y127500D01*
X253700Y130500D02*X254450Y129750D01*
X258500Y133500D02*X259250Y132750D01*
Y128250D01*
X258500Y127500D02*X259250Y128250D01*
X263750Y130500D02*X266750D01*
X271250Y133500D02*Y127500D01*
Y133500D02*X274250D01*
X271250Y130800D02*X273500D01*
X278300Y130500D02*X279050Y129750D01*
X276800Y130500D02*X278300D01*
X276050Y129750D02*X276800Y130500D01*
X276050Y129750D02*Y128250D01*
X276800Y127500D01*
X279050Y130500D02*Y128250D01*
X279800Y127500D01*
X276800D02*X278300D01*
X279050Y128250D01*
X281600Y133500D02*Y127500D01*
Y128250D02*X282350Y127500D01*
X283850D01*
X284600Y128250D01*
Y129750D02*Y128250D01*
X283850Y130500D02*X284600Y129750D01*
X282350Y130500D02*X283850D01*
X281600Y129750D02*X282350Y130500D01*
X287150Y129750D02*Y127500D01*
Y129750D02*X287900Y130500D01*
X289400D01*
X286400D02*X287150Y129750D01*
G54D76*X291200Y132000D02*Y131850D01*
G54D75*Y129750D02*Y127500D01*
X293450Y130500D02*X295700D01*
X292700Y129750D02*X293450Y130500D01*
X292700Y129750D02*Y128250D01*
X293450Y127500D01*
X295700D01*
X299750Y130500D02*X300500Y129750D01*
X298250Y130500D02*X299750D01*
X297500Y129750D02*X298250Y130500D01*
X297500Y129750D02*Y128250D01*
X298250Y127500D01*
X300500Y130500D02*Y128250D01*
X301250Y127500D01*
X298250D02*X299750D01*
X300500Y128250D01*
X303800Y133500D02*Y128250D01*
X304550Y127500D01*
X303050Y131250D02*X304550D01*
G54D76*X306050Y132000D02*Y131850D01*
G54D75*Y129750D02*Y127500D01*
X307550Y129750D02*Y128250D01*
Y129750D02*X308300Y130500D01*
X309800D01*
X310550Y129750D01*
Y128250D01*
X309800Y127500D02*X310550Y128250D01*
X308300Y127500D02*X309800D01*
X307550Y128250D02*X308300Y127500D01*
X313100Y129750D02*Y127500D01*
Y129750D02*X313850Y130500D01*
X314600D01*
X315350Y129750D01*
Y127500D01*
X312350Y130500D02*X313100Y129750D01*
X320600Y133500D02*Y127500D01*
X322550Y133500D02*X323600Y132450D01*
Y128550D01*
X322550Y127500D02*X323600Y128550D01*
X319850Y127500D02*X322550D01*
X319850Y133500D02*X322550D01*
X326150Y129750D02*Y127500D01*
Y129750D02*X326900Y130500D01*
X328400D01*
X325400D02*X326150Y129750D01*
X332450Y130500D02*X333200Y129750D01*
X330950Y130500D02*X332450D01*
X330200Y129750D02*X330950Y130500D01*
X330200Y129750D02*Y128250D01*
X330950Y127500D01*
X333200Y130500D02*Y128250D01*
X333950Y127500D01*
X330950D02*X332450D01*
X333200Y128250D01*
X335750Y130500D02*Y128250D01*
X336500Y127500D01*
X337250D01*
X338000Y128250D01*
Y130500D02*Y128250D01*
X338750Y127500D01*
X339500D01*
X340250Y128250D01*
Y130500D02*Y128250D01*
G54D76*X342050Y132000D02*Y131850D01*
G54D75*Y129750D02*Y127500D01*
X344300Y129750D02*Y127500D01*
Y129750D02*X345050Y130500D01*
X345800D01*
X346550Y129750D01*
Y127500D01*
X343550Y130500D02*X344300Y129750D01*
X350600Y130500D02*X351350Y129750D01*
X349100Y130500D02*X350600D01*
X348350Y129750D02*X349100Y130500D01*
X348350Y129750D02*Y128250D01*
X349100Y127500D01*
X350600D01*
X351350Y128250D01*
X348350Y126000D02*X349100Y125250D01*
X350600D01*
X351350Y126000D01*
Y130500D02*Y126000D01*
M02*
