G04 start of page 11 for group -4015 idx -4015 *
G04 Title: (unknown), toppaste *
G04 Creator: pcb 20140316 *
G04 CreationDate: Thu 20 Aug 2020 03:01:14 AM GMT UTC *
G04 For: railfan *
G04 Format: Gerber/RS-274X *
G04 PCB-Dimensions (mil): 3100.00 750.00 *
G04 PCB-Coordinate-Origin: lower left *
%MOIN*%
%FSLAX25Y25*%
%LNTOPPASTE*%
%ADD73R,0.0630X0.0630*%
%ADD72R,0.0470X0.0470*%
%ADD71R,0.0244X0.0244*%
%ADD70R,0.0240X0.0240*%
%ADD69R,0.0200X0.0200*%
%ADD68R,0.1000X0.1000*%
%ADD67R,0.0185X0.0185*%
%ADD66R,0.1560X0.1560*%
%ADD65R,0.0920X0.0920*%
%ADD64R,0.0512X0.0512*%
%ADD63R,0.0340X0.0340*%
G54D63*X15100Y19600D02*Y19000D01*
X22900Y19600D02*Y19000D01*
X19000Y27800D02*Y27200D01*
G54D64*X110543Y23393D02*Y22607D01*
X103457Y23393D02*Y22607D01*
X87457Y23393D02*Y22607D01*
X94543Y23393D02*Y22607D01*
G54D65*X16500Y39250D02*X22900D01*
G54D66*X71200Y41450D02*Y37050D01*
G54D65*X208100Y39250D02*X214500D01*
G54D66*X159800Y41450D02*Y37050D01*
G54D67*X86413Y40559D02*X88500D01*
X86413Y38000D02*X88500D01*
X86413Y35441D02*X88500D01*
X93500D02*X95587D01*
X93500Y38000D02*X95587D01*
X93500Y40559D02*X95587D01*
G54D68*X275500Y21500D02*X285500D01*
X275500Y57000D02*X285500D01*
G54D69*X129500Y29500D02*Y23000D01*
X134500Y29500D02*Y23000D01*
X139500Y29500D02*Y23000D01*
X144500Y29500D02*Y23000D01*
Y56000D02*Y49500D01*
X139500Y56000D02*Y49500D01*
X134500Y56000D02*Y49500D01*
X129500Y56000D02*Y49500D01*
G54D64*X217043Y22893D02*Y22107D01*
X209957Y22893D02*Y22107D01*
X253043Y22893D02*Y22107D01*
X245957Y22893D02*Y22107D01*
G54D70*X95150Y56350D02*Y51650D01*
X89850Y56350D02*Y51650D01*
G54D64*X261543Y54393D02*Y53607D01*
X254457Y54393D02*Y53607D01*
X237457Y54393D02*Y53607D01*
X244543Y54393D02*Y53607D01*
G54D71*X251642Y42740D02*X254004D01*
X251642Y39000D02*X254004D01*
X251642Y35260D02*X254004D01*
X261996D02*X264358D01*
X261996Y39000D02*X264358D01*
X261996Y42740D02*X264358D01*
G54D72*X228099Y31950D02*X228100D01*
X235900D02*X235901D01*
G54D73*X232000Y44750D02*X232001D01*
G54D64*X163543Y22393D02*Y21607D01*
X156457Y22393D02*Y21607D01*
X230457Y22893D02*Y22107D01*
X237543Y22893D02*Y22107D01*
X209957Y56393D02*Y55607D01*
X217043Y56393D02*Y55607D01*
M02*
