G04 start of page 2 for group 0 idx 0 *
G04 Title: (unknown), top *
G04 Creator: pcb 20140316 *
G04 CreationDate: Thu 20 Aug 2020 03:01:14 AM GMT UTC *
G04 For: railfan *
G04 Format: Gerber/RS-274X *
G04 PCB-Dimensions (mil): 3100.00 750.00 *
G04 PCB-Coordinate-Origin: lower left *
%MOIN*%
%FSLAX25Y25*%
%LNTOP*%
%ADD32C,0.0480*%
%ADD31C,0.0390*%
%ADD30C,0.0120*%
%ADD29C,0.0240*%
%ADD28R,0.0630X0.0630*%
%ADD27R,0.0470X0.0470*%
%ADD26R,0.0244X0.0244*%
%ADD25R,0.1000X0.1000*%
%ADD24R,0.0200X0.0200*%
%ADD23R,0.0240X0.0240*%
%ADD22R,0.0185X0.0185*%
%ADD21R,0.1560X0.1560*%
%ADD20R,0.0512X0.0512*%
%ADD19C,0.0310*%
%ADD18R,0.0920X0.0920*%
%ADD17R,0.0340X0.0340*%
%ADD16C,0.0150*%
%ADD15C,0.0300*%
%ADD14C,0.0200*%
%ADD13C,0.0100*%
%ADD12C,0.0400*%
%ADD11C,0.0001*%
G54D11*G36*
X114000Y19500D02*X110000D01*
X110000Y19500D01*
X107500D01*
Y36500D01*
X110654D01*
X110567Y36290D01*
X110474Y35900D01*
X110442Y35500D01*
X110474Y35100D01*
X110567Y34710D01*
X110721Y34339D01*
X110931Y33997D01*
X111191Y33691D01*
X111497Y33431D01*
X111839Y33221D01*
X112210Y33067D01*
X112600Y32974D01*
X113000Y32942D01*
X113400Y32974D01*
X113790Y33067D01*
X114000Y33154D01*
Y33041D01*
X113761Y32894D01*
X113408Y32592D01*
X113106Y32239D01*
X112863Y31843D01*
X112686Y31414D01*
X112577Y30963D01*
X112541Y30500D01*
X112577Y30037D01*
X112686Y29586D01*
X112863Y29157D01*
X113106Y28761D01*
X113408Y28408D01*
X113761Y28106D01*
X114000Y27959D01*
Y19500D01*
G37*
G36*
X110000Y36500D02*Y33500D01*
X99500D01*
Y36500D01*
X110000D01*
G37*
G36*
X108500Y26500D02*X100500Y34500D01*
X108500D01*
Y26500D01*
G37*
G36*
X91500D02*X106500D01*
Y19500D01*
X91500D01*
Y26500D01*
G37*
G36*
Y25500D02*Y26500D01*
X90000Y28000D01*
Y33000D01*
X98000D01*
X104500Y26500D01*
Y25500D01*
X91500D01*
G37*
G36*
X249422Y43960D02*X249431Y41363D01*
X249468Y41210D01*
X249528Y41064D01*
X249610Y40930D01*
X249712Y40810D01*
X249832Y40708D01*
X249966Y40626D01*
X250112Y40566D01*
X250265Y40529D01*
X250422Y40520D01*
X255381Y40529D01*
X255534Y40566D01*
X255680Y40626D01*
X255814Y40708D01*
X255852Y40740D01*
X256580D01*
X256818Y40641D01*
X257155Y40560D01*
X257500Y40533D01*
Y37500D01*
X241500D01*
Y56000D01*
X257500D01*
Y44947D01*
X257155Y44920D01*
X256818Y44839D01*
X256580Y44740D01*
X255852D01*
X255814Y44772D01*
X255680Y44854D01*
X255534Y44914D01*
X255381Y44951D01*
X255224Y44960D01*
X250265Y44951D01*
X250112Y44914D01*
X249966Y44854D01*
X249832Y44772D01*
X249712Y44670D01*
X249610Y44550D01*
X249528Y44416D01*
X249468Y44270D01*
X249431Y44117D01*
X249422Y43960D01*
G37*
G54D12*X159800Y39250D02*X181500D01*
X181750D02*X211300D01*
G54D13*X143500Y16000D02*X256500D01*
X143500D02*X139500Y20000D01*
X163543Y22000D02*X209457D01*
X209957Y22500D01*
X151000Y22000D02*X156457D01*
G54D14*X144500Y35000D02*Y26250D01*
G54D13*X149000Y36000D02*Y24000D01*
X151000Y22000D01*
X212000Y30500D02*X226650D01*
X228100Y31950D01*
X256500Y16000D02*X263677Y23177D01*
X241500Y18000D02*X245957Y22500D01*
X241500Y18000D02*X231500D01*
X230457Y19043D01*
Y22500D01*
X263677Y23177D02*Y35260D01*
X253043Y22500D02*Y35260D01*
G54D14*X273500Y42740D02*Y21500D01*
G54D13*X236043Y22500D02*Y31950D01*
X217043Y22500D02*X230500D01*
X209957D02*Y28457D01*
X212000Y30500D01*
X228100Y31950D02*Y40849D01*
G54D14*X237500Y61000D02*X237543Y54000D01*
G54D15*X261500Y57500D02*X258000Y61500D01*
G54D14*X264000Y46000D02*Y43000D01*
X263177Y39000D02*X267000D01*
G54D15*X268500Y40500D01*
Y47043D01*
X261543Y54000D01*
G54D14*X273500Y46000D02*Y57000D01*
X252823Y42740D02*X257500D01*
G54D13*X228100Y40849D02*X232000Y44750D01*
G54D15*X261500Y57500D02*Y54000D01*
X110500Y61500D02*X258000D01*
G54D13*X210000Y51000D02*Y56000D01*
X217043D02*X230000D01*
X232000Y54000D01*
Y44750D01*
X113000Y35500D02*X110000Y32500D01*
X111000Y19000D02*Y27000D01*
X113000Y45500D02*X109500D01*
X113000Y40500D02*X108500D01*
X118000D02*X133000D01*
X118000Y35500D02*X137000D01*
X125000Y44000D02*X126000Y43000D01*
X131000D01*
X118000Y45500D02*X121500Y43000D01*
X133000Y40500D02*X134500Y42000D01*
X137000Y35500D02*X139500Y38000D01*
X131000Y43000D02*X132000Y44000D01*
X131000Y16000D02*X134500Y19500D01*
X139500Y20000D02*Y26250D01*
X134500Y19500D02*Y26250D01*
X121500Y33000D02*Y30000D01*
X122750Y28750D01*
X129500D01*
G54D16*X87457Y35441D02*X71200D01*
X87457Y40559D02*X71200D01*
G54D14*X82000Y52000D02*X74500Y44500D01*
G54D16*X87457Y35441D02*Y23000D01*
G54D12*X19700Y39250D02*X71200D01*
G54D13*X15100Y19300D02*X18800Y23000D01*
X34500Y18000D02*X110000D01*
X111000Y19000D01*
X18800Y23000D02*X29500D01*
X23000Y27500D02*X19000D01*
X22900Y19300D02*X26200Y16000D01*
X29500Y23000D02*X34500Y18000D01*
X26200Y16000D02*X131000D01*
G54D16*X91000Y38000D02*Y29500D01*
G54D14*X89850Y52000D02*X82000D01*
X95150D02*Y41000D01*
G54D16*X94543Y35441D02*X104500D01*
X87457Y38000D02*X95000D01*
G54D15*X104000Y55000D02*Y34000D01*
G54D13*X108500Y40500D02*X107000Y42000D01*
Y52500D01*
X109500Y55000D01*
G54D15*X104000D02*X110500Y61500D01*
G54D13*X109500Y55000D02*X123500D01*
X125000Y53500D01*
Y44000D01*
X132000D02*Y57500D01*
X133000Y58500D01*
X134500Y42000D02*Y52750D01*
X139500Y38000D02*X147000D01*
X139500D02*Y52750D01*
X144500Y57500D02*Y49250D01*
X133000Y58500D02*X143500D01*
X144500Y57500D01*
G54D14*X129500Y52750D02*Y61000D01*
G54D13*X147000Y38000D02*X149000Y36000D01*
G54D11*G36*
X281500Y25500D02*Y17500D01*
X289500D01*
Y25500D01*
X281500D01*
G37*
G36*
Y61000D02*Y53000D01*
X289500D01*
Y61000D01*
X281500D01*
G37*
G54D17*X15100Y19600D02*Y19000D01*
X22900Y19600D02*Y19000D01*
X19000Y27800D02*Y27200D01*
G54D18*X16500Y39250D02*X22900D01*
G54D19*X113000Y45500D03*
G54D20*X110543Y23393D02*Y22607D01*
X103457Y23393D02*Y22607D01*
X87457Y23393D02*Y22607D01*
X94543Y23393D02*Y22607D01*
G54D21*X71200Y41450D02*Y37050D01*
G54D22*X86413Y40559D02*X88500D01*
X86413Y38000D02*X88500D01*
X86413Y35441D02*X88500D01*
X93500D02*X95587D01*
X93500Y38000D02*X95587D01*
X93500Y40559D02*X95587D01*
G54D19*X118000Y35500D03*
X113000D03*
X118000Y40500D03*
X113000D03*
X118000Y45500D03*
G54D23*X95150Y56350D02*Y51650D01*
X89850Y56350D02*Y51650D01*
G54D24*X129500Y29500D02*Y23000D01*
Y56000D02*Y49500D01*
X134500Y29500D02*Y23000D01*
X139500Y29500D02*Y23000D01*
X144500Y29500D02*Y23000D01*
Y56000D02*Y49500D01*
X139500Y56000D02*Y49500D01*
X134500Y56000D02*Y49500D01*
G54D25*X275500Y21500D02*X285500D01*
G54D26*X251642Y35260D02*X254004D01*
G54D27*X228099Y31950D02*X228100D01*
X235900D02*X235901D01*
G54D20*X217043Y22893D02*Y22107D01*
X209957Y22893D02*Y22107D01*
X253043Y22893D02*Y22107D01*
X245957Y22893D02*Y22107D01*
X230457Y22893D02*Y22107D01*
X237543Y22893D02*Y22107D01*
G54D25*X275500Y57000D02*X285500D01*
G54D20*X261543Y54393D02*Y53607D01*
X254457Y54393D02*Y53607D01*
G54D26*X251642Y42740D02*X254004D01*
X251642Y39000D02*X254004D01*
X261996Y35260D02*X264358D01*
X261996Y39000D02*X264358D01*
X261996Y42740D02*X264358D01*
G54D20*X237457Y54393D02*Y53607D01*
X244543Y54393D02*Y53607D01*
G54D28*X232000Y44750D02*X232001D01*
G54D20*X163543Y22393D02*Y21607D01*
X156457Y22393D02*Y21607D01*
G54D18*X208100Y39250D02*X214500D01*
G54D21*X159800Y41450D02*Y37050D01*
G54D20*X209957Y56393D02*Y55607D01*
X217043Y56393D02*Y55607D01*
G54D29*X23000Y27500D03*
X121500Y43000D03*
Y33000D03*
X91000Y38000D03*
X99000Y24500D03*
Y21500D03*
X109500Y45500D03*
X97000Y28000D03*
X94500Y30000D03*
X181500Y39250D03*
X186500D03*
X191500D03*
X210000Y51000D03*
X144500Y32000D03*
Y35000D03*
X273500Y46000D03*
Y42740D03*
X264000Y46000D03*
X257500Y42740D03*
X247000Y39000D03*
X249500Y52500D03*
X236000Y27500D03*
G54D30*G54D31*G54D32*M02*
