G04 start of page 3 for group 1 idx 1 *
G04 Title: (unknown), bottom *
G04 Creator: pcb 20140316 *
G04 CreationDate: Thu 20 Aug 2020 03:01:14 AM GMT UTC *
G04 For: railfan *
G04 Format: Gerber/RS-274X *
G04 PCB-Dimensions (mil): 3100.00 750.00 *
G04 PCB-Coordinate-Origin: lower left *
%MOIN*%
%FSLAX25Y25*%
%LNBOTTOM*%
%ADD39C,0.0480*%
%ADD38C,0.0390*%
%ADD37C,0.0120*%
%ADD36C,0.0240*%
%ADD35C,0.0200*%
%ADD34C,0.0100*%
%ADD33C,0.0001*%
G54D33*G36*
X265497Y63000D02*X276000D01*
Y15500D01*
X265497D01*
Y40740D01*
X272580D01*
X272818Y40641D01*
X273155Y40560D01*
X273500Y40533D01*
X273845Y40560D01*
X274182Y40641D01*
X274502Y40774D01*
X274797Y40955D01*
X275060Y41180D01*
X275285Y41443D01*
X275466Y41738D01*
X275599Y42058D01*
X275680Y42395D01*
X275700Y42740D01*
X275680Y43085D01*
X275599Y43422D01*
X275466Y43742D01*
X275285Y44037D01*
X275060Y44300D01*
X274979Y44370D01*
X275060Y44440D01*
X275285Y44703D01*
X275466Y44998D01*
X275599Y45318D01*
X275680Y45655D01*
X275700Y46000D01*
X275680Y46345D01*
X275599Y46682D01*
X275466Y47002D01*
X275285Y47297D01*
X275060Y47560D01*
X274797Y47785D01*
X274502Y47966D01*
X274182Y48099D01*
X273845Y48180D01*
X273500Y48207D01*
X273155Y48180D01*
X272818Y48099D01*
X272580Y48000D01*
X265497D01*
Y63000D01*
G37*
G36*
X121497D02*X265497D01*
Y48000D01*
X264920D01*
X264682Y48099D01*
X264345Y48180D01*
X264000Y48207D01*
X263655Y48180D01*
X263318Y48099D01*
X262998Y47966D01*
X262703Y47785D01*
X262440Y47560D01*
X262215Y47297D01*
X262034Y47002D01*
X261901Y46682D01*
X261820Y46345D01*
X261793Y46000D01*
X261820Y45655D01*
X261901Y45318D01*
X262034Y44998D01*
X262192Y44740D01*
X258420D01*
X258182Y44839D01*
X257845Y44920D01*
X257500Y44947D01*
X257155Y44920D01*
X256818Y44839D01*
X256498Y44706D01*
X256203Y44525D01*
X255940Y44300D01*
X255715Y44037D01*
X255534Y43742D01*
X255401Y43422D01*
X255320Y43085D01*
X255293Y42740D01*
X255320Y42395D01*
X255401Y42058D01*
X255534Y41738D01*
X255715Y41443D01*
X255940Y41180D01*
X256203Y40955D01*
X256498Y40774D01*
X256818Y40641D01*
X257155Y40560D01*
X257500Y40533D01*
X257845Y40560D01*
X258182Y40641D01*
X258420Y40740D01*
X265497D01*
Y15500D01*
X121497D01*
Y30793D01*
X121500Y30793D01*
X121845Y30820D01*
X122182Y30901D01*
X122502Y31034D01*
X122797Y31215D01*
X123060Y31440D01*
X123285Y31703D01*
X123466Y31998D01*
X123599Y32318D01*
X123680Y32655D01*
X123700Y33000D01*
X123680Y33345D01*
X123599Y33682D01*
X123466Y34002D01*
X123285Y34297D01*
X123060Y34560D01*
X123000Y34612D01*
Y41388D01*
X123060Y41440D01*
X123285Y41703D01*
X123466Y41998D01*
X123599Y42318D01*
X123680Y42655D01*
X123700Y43000D01*
X123680Y43345D01*
X123599Y43682D01*
X123466Y44002D01*
X123285Y44297D01*
X123060Y44560D01*
X122797Y44785D01*
X122502Y44966D01*
X122182Y45099D01*
X121845Y45180D01*
X121500Y45207D01*
X121497Y45207D01*
Y48326D01*
X121592Y48408D01*
X121894Y48761D01*
X122137Y49157D01*
X122314Y49586D01*
X122423Y50037D01*
X122450Y50500D01*
X122423Y50963D01*
X122314Y51414D01*
X122137Y51843D01*
X121894Y52239D01*
X121592Y52592D01*
X121497Y52674D01*
Y63000D01*
G37*
G36*
X115495D02*X121497D01*
Y52674D01*
X121239Y52894D01*
X120843Y53137D01*
X120414Y53314D01*
X119963Y53423D01*
X119500Y53459D01*
X119037Y53423D01*
X118586Y53314D01*
X118157Y53137D01*
X117761Y52894D01*
X117408Y52592D01*
X117106Y52239D01*
X116863Y51843D01*
X116686Y51414D01*
X116577Y50963D01*
X116541Y50500D01*
X116577Y50037D01*
X116686Y49586D01*
X116863Y49157D01*
X117106Y48761D01*
X117408Y48408D01*
X117761Y48106D01*
X118157Y47863D01*
X118586Y47686D01*
X119037Y47577D01*
X119500Y47541D01*
X119963Y47577D01*
X120414Y47686D01*
X120843Y47863D01*
X121239Y48106D01*
X121497Y48326D01*
Y45207D01*
X121155Y45180D01*
X120818Y45099D01*
X120498Y44966D01*
X120203Y44785D01*
X119940Y44560D01*
X119715Y44297D01*
X119534Y44002D01*
X119401Y43682D01*
X119320Y43345D01*
X119293Y43000D01*
X119320Y42655D01*
X119401Y42318D01*
X119534Y41998D01*
X119715Y41703D01*
X119940Y41440D01*
X120000Y41388D01*
Y34612D01*
X119940Y34560D01*
X119715Y34297D01*
X119534Y34002D01*
X119401Y33682D01*
X119320Y33345D01*
X119293Y33000D01*
X119320Y32655D01*
X119401Y32318D01*
X119534Y31998D01*
X119715Y31703D01*
X119940Y31440D01*
X120203Y31215D01*
X120498Y31034D01*
X120818Y30901D01*
X121155Y30820D01*
X121497Y30793D01*
Y15500D01*
X115495D01*
Y27541D01*
X115500Y27541D01*
X115963Y27577D01*
X116414Y27686D01*
X116843Y27863D01*
X117239Y28106D01*
X117592Y28408D01*
X117894Y28761D01*
X118137Y29157D01*
X118314Y29586D01*
X118423Y30037D01*
X118450Y30500D01*
X118423Y30963D01*
X118314Y31414D01*
X118137Y31843D01*
X117894Y32239D01*
X117592Y32592D01*
X117239Y32894D01*
X116843Y33137D01*
X116414Y33314D01*
X115963Y33423D01*
X115500Y33459D01*
X115495Y33459D01*
Y63000D01*
G37*
G36*
X111495D02*X115495D01*
Y33459D01*
X115037Y33423D01*
X114586Y33314D01*
X114157Y33137D01*
X113761Y32894D01*
X113408Y32592D01*
X113106Y32239D01*
X112863Y31843D01*
X112686Y31414D01*
X112577Y30963D01*
X112541Y30500D01*
X112577Y30037D01*
X112686Y29586D01*
X112863Y29157D01*
X113106Y28761D01*
X113408Y28408D01*
X113761Y28106D01*
X114157Y27863D01*
X114586Y27686D01*
X115037Y27577D01*
X115495Y27541D01*
Y15500D01*
X111495D01*
Y47541D01*
X111500Y47541D01*
X111963Y47577D01*
X112414Y47686D01*
X112843Y47863D01*
X113239Y48106D01*
X113592Y48408D01*
X113894Y48761D01*
X114137Y49157D01*
X114314Y49586D01*
X114423Y50037D01*
X114450Y50500D01*
X114423Y50963D01*
X114314Y51414D01*
X114137Y51843D01*
X113894Y52239D01*
X113592Y52592D01*
X113239Y52894D01*
X112843Y53137D01*
X112414Y53314D01*
X111963Y53423D01*
X111500Y53459D01*
X111495Y53459D01*
Y63000D01*
G37*
G36*
X12000D02*X111495D01*
Y53459D01*
X111037Y53423D01*
X110586Y53314D01*
X110157Y53137D01*
X109761Y52894D01*
X109408Y52592D01*
X109106Y52239D01*
X108863Y51843D01*
X108686Y51414D01*
X108577Y50963D01*
X108541Y50500D01*
X108577Y50037D01*
X108686Y49586D01*
X108863Y49157D01*
X109106Y48761D01*
X109408Y48408D01*
X109761Y48106D01*
X110157Y47863D01*
X110586Y47686D01*
X111037Y47577D01*
X111495Y47541D01*
Y15500D01*
X12000D01*
Y63000D01*
G37*
G54D34*X121500Y33000D02*Y43000D01*
G54D35*X257500Y42740D02*X273500D01*
X264000Y46000D02*X273500D01*
G54D33*G36*
X281500Y25500D02*Y17500D01*
X289500D01*
Y25500D01*
X281500D01*
G37*
G36*
Y61000D02*Y53000D01*
X289500D01*
Y61000D01*
X281500D01*
G37*
G54D36*X23000Y27500D03*
X121500Y43000D03*
Y33000D03*
X91000Y38000D03*
X99000Y24500D03*
Y21500D03*
X109500Y45500D03*
X97000Y28000D03*
X94500Y30000D03*
X181500Y39250D03*
X186500D03*
X191500D03*
X210000Y51000D03*
X144500Y32000D03*
Y35000D03*
X273500Y46000D03*
Y42740D03*
X264000Y46000D03*
X257500Y42740D03*
X247000Y39000D03*
X249500Y52500D03*
X236000Y27500D03*
G54D37*G54D38*G54D39*M02*
