M48
INCH
T42C0.012
T41C0.048
%
T42
X002300Y002750
X009100Y003800
X009450Y003000
X009700Y002800
X009900Y002450
X009900Y002150
X010950Y004550
X012150Y004300
X012150Y003300
X014450Y003500
X014450Y003200
X018150Y003925
X018650Y003925
X019150Y003925
X021000Y005100
X023600Y002750
X024700Y003900
X024950Y005250
X025750Y004274
X026400Y004600
X027350Y004600
X027350Y004274
T41
X028550Y005700
X028550Y002150
M30
