G04 start of page 7 for group -4063 idx -4063 *
G04 Title: (unknown), componentmask *
G04 Creator: pcb 20140316 *
G04 CreationDate: Thu 20 Aug 2020 03:01:14 AM GMT UTC *
G04 For: railfan *
G04 Format: Gerber/RS-274X *
G04 PCB-Dimensions (mil): 3100.00 750.00 *
G04 PCB-Coordinate-Origin: lower left *
%MOIN*%
%FSLAX25Y25*%
%LNTOPMASK*%
%ADD56R,0.0690X0.0690*%
%ADD55R,0.0530X0.0530*%
%ADD54R,0.0304X0.0304*%
%ADD53R,0.1060X0.1060*%
%ADD52R,0.0300X0.0300*%
%ADD51R,0.0245X0.0245*%
%ADD50R,0.1620X0.1620*%
%ADD49R,0.0572X0.0572*%
%ADD48C,0.0370*%
%ADD47R,0.0980X0.0980*%
%ADD46R,0.0400X0.0400*%
%ADD45C,0.0001*%
%ADD44C,0.0490*%
G54D44*X115500Y30500D03*
X111500Y50500D03*
X119500D03*
G54D45*G36*
X281200Y25800D02*Y17200D01*
X289800D01*
Y25800D01*
X281200D01*
G37*
G36*
Y61300D02*Y52700D01*
X289800D01*
Y61300D01*
X281200D01*
G37*
G54D46*X15100Y19600D02*Y19000D01*
X22900Y19600D02*Y19000D01*
X19000Y27800D02*Y27200D01*
G54D47*X16500Y39250D02*X22900D01*
G54D48*X113000Y45500D03*
G54D49*X110543Y23393D02*Y22607D01*
X103457Y23393D02*Y22607D01*
X87457Y23393D02*Y22607D01*
X94543Y23393D02*Y22607D01*
G54D50*X71200Y41450D02*Y37050D01*
G54D51*X86413Y40559D02*X88500D01*
X86413Y38000D02*X88500D01*
X86413Y35441D02*X88500D01*
X93500D02*X95587D01*
X93500Y38000D02*X95587D01*
X93500Y40559D02*X95587D01*
G54D48*X118000Y35500D03*
X113000D03*
X118000Y40500D03*
X113000D03*
X118000Y45500D03*
G54D52*X95150Y56350D02*Y51650D01*
X89850Y56350D02*Y51650D01*
X129500Y29500D02*Y23000D01*
Y56000D02*Y49500D01*
X134500Y29500D02*Y23000D01*
X139500Y29500D02*Y23000D01*
X144500Y29500D02*Y23000D01*
Y56000D02*Y49500D01*
X139500Y56000D02*Y49500D01*
X134500Y56000D02*Y49500D01*
G54D53*X275500Y21500D02*X285500D01*
G54D54*X251642Y35260D02*X254004D01*
G54D55*X228099Y31950D02*X228100D01*
X235900D02*X235901D01*
G54D49*X217043Y22893D02*Y22107D01*
X209957Y22893D02*Y22107D01*
X253043Y22893D02*Y22107D01*
X245957Y22893D02*Y22107D01*
X230457Y22893D02*Y22107D01*
X237543Y22893D02*Y22107D01*
G54D53*X275500Y57000D02*X285500D01*
G54D49*X261543Y54393D02*Y53607D01*
X254457Y54393D02*Y53607D01*
G54D54*X251642Y42740D02*X254004D01*
X251642Y39000D02*X254004D01*
X261996Y35260D02*X264358D01*
X261996Y39000D02*X264358D01*
X261996Y42740D02*X264358D01*
G54D49*X237457Y54393D02*Y53607D01*
X244543Y54393D02*Y53607D01*
G54D56*X232000Y44750D02*X232001D01*
G54D49*X163543Y22393D02*Y21607D01*
X156457Y22393D02*Y21607D01*
G54D47*X208100Y39250D02*X214500D01*
G54D50*X159800Y41450D02*Y37050D01*
G54D49*X209957Y56393D02*Y55607D01*
X217043Y56393D02*Y55607D01*
M02*
