G04 start of page 9 for group -4079 idx -4079 *
G04 Title: (unknown), topsilk *
G04 Creator: pcb 20140316 *
G04 CreationDate: Thu 20 Aug 2020 03:01:14 AM GMT UTC *
G04 For: railfan *
G04 Format: Gerber/RS-274X *
G04 PCB-Dimensions (mil): 3100.00 750.00 *
G04 PCB-Coordinate-Origin: lower left *
%MOIN*%
%FSLAX25Y25*%
%LNTOPSILK*%
%ADD62C,0.0060*%
%ADD61C,0.0300*%
%ADD60C,0.0200*%
%ADD59C,0.0100*%
G54D59*X291500Y63000D02*Y15500D01*
G54D60*X17500Y52500D02*Y45500D01*
X14000Y49000D02*X21000D01*
G54D61*X124500Y20500D03*
G54D62*X38500Y17200D02*X39200Y16500D01*
X38500Y21400D02*X39200Y22100D01*
X38500Y21400D02*Y17200D01*
X41860Y16500D02*X43680D01*
X40880Y17480D02*X41860Y16500D01*
X40880Y21120D02*Y17480D01*
Y21120D02*X41860Y22100D01*
X43680D01*
X45360D02*X46060Y21400D01*
Y17200D01*
X45360Y16500D02*X46060Y17200D01*
X50260Y21400D02*X50960Y22100D01*
X53060D01*
X53760Y21400D01*
Y20000D01*
X50260Y16500D02*X53760Y20000D01*
X50260Y16500D02*X53760D01*
X55440Y17200D02*X56140Y16500D01*
X55440Y21400D02*Y17200D01*
Y21400D02*X56140Y22100D01*
X57540D01*
X58240Y21400D01*
Y17200D01*
X57540Y16500D02*X58240Y17200D01*
X56140Y16500D02*X57540D01*
X55440Y17900D02*X58240Y20700D01*
X59920Y21400D02*X60620Y22100D01*
X62720D01*
X63420Y21400D01*
Y20000D01*
X59920Y16500D02*X63420Y20000D01*
X59920Y16500D02*X63420D01*
X65100Y17200D02*X65800Y16500D01*
X65100Y21400D02*Y17200D01*
Y21400D02*X65800Y22100D01*
X67200D01*
X67900Y21400D01*
Y17200D01*
X67200Y16500D02*X67900Y17200D01*
X65800Y16500D02*X67200D01*
X65100Y17900D02*X67900Y20700D01*
X151980Y57000D02*X153800D01*
X151000Y57980D02*X151980Y57000D01*
X151000Y61620D02*Y57980D01*
Y61620D02*X151980Y62600D01*
X153800D01*
X156460Y57000D02*X158280D01*
X155480Y57980D02*X156460Y57000D01*
X155480Y61620D02*Y57980D01*
Y61620D02*X156460Y62600D01*
X158280D01*
X162480Y57000D02*X165280D01*
X165980Y57700D01*
Y59380D02*Y57700D01*
X165280Y60080D02*X165980Y59380D01*
X163180Y60080D02*X165280D01*
X163180Y62600D02*Y57000D01*
X162480Y62600D02*X165280D01*
X165980Y61900D01*
Y60780D01*
X165280Y60080D02*X165980Y60780D01*
X167660Y62600D02*X169060Y59800D01*
X170460Y62600D01*
X169060Y59800D02*Y57000D01*
X172140Y59800D02*X174940D01*
X179420Y62600D02*X180120Y61900D01*
X177320Y62600D02*X179420D01*
X176620Y61900D02*X177320Y62600D01*
X176620Y61900D02*Y60500D01*
X177320Y59800D01*
X179420D01*
X180120Y59100D01*
Y57700D01*
X179420Y57000D02*X180120Y57700D01*
X177320Y57000D02*X179420D01*
X176620Y57700D02*X177320Y57000D01*
X181800Y61200D02*Y57000D01*
Y61200D02*X182780Y62600D01*
X184320D01*
X185300Y61200D01*
Y57000D01*
X181800Y59800D02*X185300D01*
X13980Y57000D02*X15800D01*
X13000Y57980D02*X13980Y57000D01*
X13000Y61620D02*Y57980D01*
Y61620D02*X13980Y62600D01*
X15800D01*
X17480D02*Y57000D01*
Y59800D02*X20280Y62600D01*
X17480Y59800D02*X20280Y57000D01*
X21960Y62600D02*X24760D01*
X23360D02*Y57000D01*
X26440Y59800D02*X29240D01*
X30920Y62600D02*X33720D01*
X34420Y61900D01*
Y60500D01*
X33720Y59800D02*X34420Y60500D01*
X31620Y59800D02*X33720D01*
X31620Y62600D02*Y57000D01*
X32740Y59800D02*X34420Y57000D01*
X36100Y60080D02*X38200D01*
X36100Y57000D02*X38900D01*
X36100Y62600D02*Y57000D01*
Y62600D02*X38900D01*
X40580Y60080D02*X42680D01*
X40580Y57000D02*X43380D01*
X40580Y62600D02*Y57000D01*
Y62600D02*X43380D01*
X45060D02*Y57000D01*
Y62600D02*X47860D01*
X45060Y60080D02*X47160D01*
X49540D02*X51640D01*
X49540Y57000D02*X52340D01*
X49540Y62600D02*Y57000D01*
Y62600D02*X52340D01*
X54020D02*X56820D01*
X57520Y61900D01*
Y60500D01*
X56820Y59800D02*X57520Y60500D01*
X54720Y59800D02*X56820D01*
X54720Y62600D02*Y57000D01*
X55840Y59800D02*X57520Y57000D01*
X61720Y59800D02*X63120Y57000D01*
X64520Y59800D02*X63120Y57000D01*
X66200Y61480D02*X67320Y62600D01*
Y57000D01*
X66200D02*X68300D01*
X69980D02*X70680D01*
X72360Y57700D02*X73060Y57000D01*
X72360Y61900D02*Y57700D01*
Y61900D02*X73060Y62600D01*
X74460D01*
X75160Y61900D01*
Y57700D01*
X74460Y57000D02*X75160Y57700D01*
X73060Y57000D02*X74460D01*
X72360Y58400D02*X75160Y61200D01*
G54D59*X12600Y30300D02*Y16400D01*
X25400D01*
Y30300D01*
X12600D01*
X127500Y21000D02*X146500D01*
Y58000D02*Y21000D01*
X127500Y58000D02*X146500D01*
X127500Y37000D02*Y21000D01*
Y58000D02*Y42000D01*
Y37000D02*G75*G03X127500Y42000I0J2500D01*G01*
X106607Y20245D02*X107393D01*
X106607Y25755D02*X107393D01*
X90607D02*X91393D01*
X90607Y20245D02*X91393D01*
X84110Y42921D02*X97890D01*
Y33079D01*
X84110D01*
Y42921D01*
X82110Y44421D02*G75*G03X82110Y44421I500J0D01*G01*
X97500Y59000D02*Y49000D01*
X87500Y59000D02*X97500D01*
X87500D02*Y49000D01*
X97500D01*
X99500Y60500D02*G75*G03X99500Y60500I-500J0D01*G01*
X159607Y19245D02*X160393D01*
X159607Y24755D02*X160393D01*
X213107Y19745D02*X213893D01*
X213107Y25255D02*X213893D01*
X213107Y58755D02*X213893D01*
X213107Y53245D02*X213893D01*
X249107Y19745D02*X249893D01*
X249107Y25255D02*X249893D01*
X233607D02*X234393D01*
X233607Y19745D02*X234393D01*
X257607Y51245D02*X258393D01*
X257607Y56755D02*X258393D01*
X249339Y45102D02*X266661D01*
Y32898D01*
X249339D02*X266661D01*
X249339Y45102D02*Y32898D01*
X247339Y46602D02*G75*G03X247339Y46602I500J0D01*G01*
X240607Y56755D02*X241393D01*
X240607Y51245D02*X241393D01*
G54D62*X27200Y29100D02*Y25600D01*
X27700Y25100D01*
X28700D01*
X29200Y25600D01*
Y29100D02*Y25600D01*
X30400Y26600D02*X32400Y29100D01*
X30400Y26600D02*X32900D01*
X32400Y29100D02*Y25100D01*
X148000Y55000D02*Y51500D01*
X148500Y51000D01*
X149500D01*
X150000Y51500D01*
Y55000D02*Y51500D01*
X151200Y54500D02*X151700Y55000D01*
X153200D01*
X153700Y54500D01*
Y53500D01*
X151200Y51000D02*X153700Y53500D01*
X151200Y51000D02*X153700D01*
X114200Y58500D02*X115000D01*
Y55000D01*
X114500Y54500D02*X115000Y55000D01*
X114000Y54500D02*X114500D01*
X113500Y55000D02*X114000Y54500D01*
X113500Y55500D02*Y55000D01*
X116200Y57700D02*X117000Y58500D01*
Y54500D01*
X116200D02*X117700D01*
X115507Y21150D02*X116807D01*
X114807Y21850D02*X115507Y21150D01*
X114807Y24450D02*Y21850D01*
Y24450D02*X115507Y25150D01*
X116807D01*
X118007Y24650D02*X118507Y25150D01*
X120007D01*
X120507Y24650D01*
Y23650D01*
X118007Y21150D02*X120507Y23650D01*
X118007Y21150D02*X120507D01*
X79050D02*X80350D01*
X78350Y21850D02*X79050Y21150D01*
X78350Y24450D02*Y21850D01*
Y24450D02*X79050Y25150D01*
X80350D01*
X81550Y24350D02*X82350Y25150D01*
Y21150D01*
X81550D02*X83050D01*
X99956Y40000D02*Y36500D01*
X100456Y36000D01*
X101456D01*
X101956Y36500D01*
Y40000D02*Y36500D01*
X103156Y39200D02*X103956Y40000D01*
Y36000D01*
X103156D02*X104656D01*
X99500Y56000D02*Y52000D01*
X101500D01*
X102700Y55200D02*X103500Y56000D01*
Y52000D01*
X102700D02*X104200D01*
X167500Y24000D02*X169500D01*
X170000Y23500D01*
Y22500D01*
X169500Y22000D02*X170000Y22500D01*
X168000Y22000D02*X169500D01*
X168000Y24000D02*Y20000D01*
X168800Y22000D02*X170000Y20000D01*
X171200Y23500D02*X171700Y24000D01*
X173200D01*
X173700Y23500D01*
Y22500D01*
X171200Y20000D02*X173700Y22500D01*
X171200Y20000D02*X173700D01*
X210936Y30650D02*X212936D01*
X213436Y30150D01*
Y29150D01*
X212936Y28650D02*X213436Y29150D01*
X211436Y28650D02*X212936D01*
X211436Y30650D02*Y26650D01*
X212236Y28650D02*X213436Y26650D01*
X214636Y29850D02*X215436Y30650D01*
Y26650D01*
X214636D02*X216136D01*
X222200Y17500D02*X223500D01*
X221500Y18200D02*X222200Y17500D01*
X221500Y20800D02*Y18200D01*
Y20800D02*X222200Y21500D01*
X223500D01*
X224700Y21000D02*X225200Y21500D01*
X226200D01*
X226700Y21000D01*
X226200Y17500D02*X226700Y18000D01*
X225200Y17500D02*X226200D01*
X224700Y18000D02*X225200Y17500D01*
Y19700D02*X226200D01*
X226700Y21000D02*Y20200D01*
Y19200D02*Y18000D01*
Y19200D02*X226200Y19700D01*
X226700Y20200D02*X226200Y19700D01*
X247136Y26650D02*X248436D01*
X246436Y27350D02*X247136Y26650D01*
X246436Y29950D02*Y27350D01*
Y29950D02*X247136Y30650D01*
X248436D01*
X249636Y28150D02*X251636Y30650D01*
X249636Y28150D02*X252136D01*
X251636Y30650D02*Y26650D01*
X259000Y31000D02*Y27500D01*
X259500Y27000D01*
X260500D01*
X261000Y27500D01*
Y31000D02*Y27500D01*
X262200Y30500D02*X262700Y31000D01*
X263700D01*
X264200Y30500D01*
X263700Y27000D02*X264200Y27500D01*
X262700Y27000D02*X263700D01*
X262200Y27500D02*X262700Y27000D01*
Y29200D02*X263700D01*
X264200Y30500D02*Y29700D01*
Y28700D02*Y27500D01*
Y28700D02*X263700Y29200D01*
X264200Y29700D02*X263700Y29200D01*
X256050Y58650D02*X257350D01*
X255350Y59350D02*X256050Y58650D01*
X255350Y61950D02*Y59350D01*
Y61950D02*X256050Y62650D01*
X257350D01*
X260050D02*X260550Y62150D01*
X259050Y62650D02*X260050D01*
X258550Y62150D02*X259050Y62650D01*
X258550Y62150D02*Y59150D01*
X259050Y58650D01*
X260050Y60850D02*X260550Y60350D01*
X258550Y60850D02*X260050D01*
X259050Y58650D02*X260050D01*
X260550Y59150D01*
Y60350D02*Y59150D01*
X239136Y58650D02*X240436D01*
X238436Y59350D02*X239136Y58650D01*
X238436Y61950D02*Y59350D01*
Y61950D02*X239136Y62650D01*
X240436D01*
X241636D02*X243636D01*
X241636D02*Y60650D01*
X242136Y61150D01*
X243136D01*
X243636Y60650D01*
Y59150D01*
X243136Y58650D02*X243636Y59150D01*
X242136Y58650D02*X243136D01*
X241636Y59150D02*X242136Y58650D01*
X225500Y53500D02*X227500D01*
X228000Y53000D01*
Y52000D01*
X227500Y51500D02*X228000Y52000D01*
X226000Y51500D02*X227500D01*
X226000Y53500D02*Y49500D01*
X226800Y51500D02*X228000Y49500D01*
X229200Y53000D02*X229700Y53500D01*
X230700D01*
X231200Y53000D01*
X230700Y49500D02*X231200Y50000D01*
X229700Y49500D02*X230700D01*
X229200Y50000D02*X229700Y49500D01*
Y51700D02*X230700D01*
X231200Y53000D02*Y52200D01*
Y51200D02*Y50000D01*
Y51200D02*X230700Y51700D01*
X231200Y52200D02*X230700Y51700D01*
X196307Y57650D02*X198307D01*
X198807Y57150D01*
Y56150D01*
X198307Y55650D02*X198807Y56150D01*
X196807Y55650D02*X198307D01*
X196807Y57650D02*Y53650D01*
X197607Y55650D02*X198807Y53650D01*
X200007Y57150D02*X200507Y57650D01*
X201507D01*
X202007Y57150D01*
X201507Y53650D02*X202007Y54150D01*
X200507Y53650D02*X201507D01*
X200007Y54150D02*X200507Y53650D01*
Y55850D02*X201507D01*
X202007Y57150D02*Y56350D01*
Y55350D02*Y54150D01*
Y55350D02*X201507Y55850D01*
X202007Y56350D02*X201507Y55850D01*
X203207Y53650D02*X205707Y57650D01*
X203207D02*X205707Y53650D01*
M02*
